PathFileType	3	(X/Y/Z)	RCH0000002 BBF 13.c3d
DataRate	CameraRate	NumFrames	NumMarkers	Units	OrigDataRate	OrigDataStartFrame	OrigNumFrames
100.0	100.0	16	23	mm	100.0	427	457
Frame#	Time	T2			T10			MAN			LASI			RASI			LPSI			RPSI			LPAT			LKNE			LANK			LMED			LHEE			LTOE			RPAT			RKNE			RANK			RMED			RHEE			RTOE			RTHI			LTHI			RTIB			LTIB			
		X1	Y1	Z1	X2	Y2	Z2	X3	Y3	Z3	X4	Y4	Z4	X5	Y5	Z5	X6	Y6	Z6	X7	Y7	Z7	X8	Y8	Z8	X9	Y9	Z9	X10	Y10	Z10	X11	Y11	Z11	X12	Y12	Z12	X13	Y13	Z13	X14	Y14	Z14	X15	Y15	Z15	X16	Y16	Z16	X17	Y17	Z17	X18	Y18	Z18	X19	Y19	Z19	X20	Y20	Z20	X21	Y21	Z21	X22	Y22	Z22	X23	Y23	Z23	

427	4.260	2001.02341	-66.05585	970.90054	2001.08879	-80.96908	783.11249	2134.00495	-63.67197	938.33265	2073.76016	27.87610	642.00073	2125.29018	-142.02263	638.87121	1981.54682	-58.75991	682.01798	1998.40489	-126.42719	678.10517	2030.74143	-29.09518	354.70387	1972.57263	21.92680	327.35919	1838.62908	-1.55141	84.15608	1849.06290	-67.39046	108.89324	1813.17320	-36.26089	131.53233	1884.26580	-38.67829	67.49699	2225.71364	-40.57386	405.10871	2212.57621	-102.50187	356.39533	2196.09194	-142.36270	91.64282	2162.01989	-80.75043	93.34496	2139.11345	-127.84263	117.06451	2226.28456	-94.44760	80.13494	2199.71268	-182.85251	459.74440	1991.42536	98.28425	447.00683	2228.26298	-180.97518	253.42712	1909.87978	76.38138	219.02464	
428	4.270	2012.19683	-66.44268	968.01054	2013.13019	-79.25273	780.23172	2145.43394	-63.66325	936.18746	2085.88982	29.68894	638.63853	2137.99983	-139.86510	637.10678	1993.75093	-56.84744	678.68895	2010.83826	-124.46366	675.74827	2046.11769	-27.49707	350.25851	1987.00713	22.56066	323.36647	1844.07089	-1.10164	86.22962	1855.01519	-67.01314	110.46798	1820.75276	-35.59117	134.66408	1888.15335	-38.60864	67.38673	2234.32988	-35.97009	400.67539	2222.25397	-98.63513	352.23729	2206.41717	-138.80447	87.28938	2171.25122	-77.74899	89.33731	2149.11164	-125.33969	112.56266	2236.01943	-90.26527	76.84302	2212.00905	-178.82801	455.97832	2004.26628	99.13360	443.05683	2239.53577	-176.67358	249.01151	1921.06332	76.84393	217.49942	
429	4.280	2023.26972	-66.73999	965.09126	2025.34908	-77.22973	777.33545	2156.78663	-63.55134	934.18317	2098.22828	31.38590	635.02049	2150.71864	-137.82039	635.65345	2006.07654	-54.79210	675.40402	2023.33465	-122.35385	673.75608	2062.49516	-25.74948	345.55227	2002.39678	23.22642	319.05554	1850.69533	-0.50866	88.38518	1862.13330	-66.49403	112.04133	1829.65490	-34.75558	137.84480	1892.96818	-38.44173	67.24057	2242.89653	-32.42162	396.28045	2231.41906	-95.69088	348.22309	2214.08823	-136.23369	83.45786	2178.17384	-75.57647	86.01495	2156.78300	-123.53379	108.90667	2243.21300	-87.22779	73.92417	2223.84963	-175.59510	452.41724	2017.62222	99.86614	438.91164	2249.12640	-173.37729	244.83010	1933.37788	77.39962	215.83993	
430	4.290	2034.21970	-66.88249	962.21942	2037.69261	-74.90771	774.51009	2168.03215	-63.29982	932.37032	2110.73482	32.90806	631.24431	2163.36835	-135.95780	634.58753	2018.47228	-52.62930	672.28088	2035.82619	-120.13419	672.21976	2079.66907	-23.87663	340.74882	2018.57622	23.95320	314.58303	1858.58792	0.29866	90.57814	1870.47151	-65.76531	113.58448	1839.89032	-33.68715	140.99960	1898.83764	-38.09884	67.08284	2251.38153	-30.07416	392.12686	2240.04679	-93.79364	344.53597	2219.47787	-134.68561	80.20517	2183.10568	-74.28391	83.42967	2162.43795	-122.50576	106.11399	2248.21428	-85.34312	71.44184	2235.14113	-173.29737	449.21692	2031.42043	100.48288	434.72521	2257.18921	-171.20098	240.98541	1946.76501	78.10032	214.12285	
431	4.300	2045.02689	-66.80523	959.48296	2050.10435	-72.31102	771.85364	2179.14019	-62.87428	930.80846	2123.37329	34.19813	627.43580	2175.87442	-134.34862	633.97671	2030.89286	-50.40029	669.44891	2048.25084	-117.84829	671.22030	2097.41392	-21.92967	336.05053	2035.36773	24.75882	310.14029	1867.79637	1.38592	92.77347	1880.05312	-64.76702	115.07640	1851.41906	-32.33454	144.06131	1905.87991	-37.49650	66.95328	2259.71008	-29.02036	388.37621	2248.08881	-93.02750	341.32266	2223.03345	-134.12365	77.54544	2186.42234	-73.86473	81.58723	2166.45072	-122.28754	104.14619	2251.43687	-84.54045	69.42388	2245.78668	-172.03798	446.50120	2045.59251	100.98811	430.67733	2263.91576	-170.19718	237.54491	1961.13635	78.98644	212.45442	
432	4.310	2055.67460	-66.44788	956.97644	2062.52738	-69.48111	769.46973	2190.08233	-62.24450	929.56332	2136.11217	35.20578	623.74217	2188.17110	-133.05965	633.87387	2043.30092	-48.15136	667.04031	2060.55647	-115.54595	670.82182	2115.50369	-19.98245	331.68368	2052.59637	25.64768	305.94032	1878.32698	2.80630	94.95103	1890.87213	-63.45283	116.50576	1864.15461	-30.67024	146.97739	1914.19800	-36.55195	66.90517	2267.77650	-29.28720	385.13893	2255.48133	-93.42428	338.68378	2225.22210	-134.44529	75.45364	2188.51765	-74.25296	80.45004	2169.21253	-122.85277	102.91776	2253.31482	-84.68230	67.86417	2255.69581	-171.86699	444.35230	2060.07880	101.38902	426.96214	2269.50584	-170.35135	234.54042	1976.37815	80.08244	210.96651	
433	4.320	2066.15017	-65.75917	954.79532	2074.90733	-66.47542	767.46056	2200.83348	-61.38633	928.70255	2148.92406	35.89240	620.32252	2200.20511	-132.14697	634.31194	2055.66773	-45.93202	665.18011	2072.70353	-113.28102	671.06613	2133.73082	-18.12318	327.87990	2070.10338	26.61068	302.20171	1890.14541	4.59426	97.10852	1902.89745	-61.79486	117.87145	1877.97371	-28.69614	149.71446	1923.87375	-35.18991	67.00144	2275.45841	-30.82911	382.47208	2262.15500	-94.95545	336.67075	2226.47858	-135.49446	73.87519	2189.76573	-75.32753	79.94512	2171.08709	-124.11363	102.31081	2254.26010	-85.58268	66.72890	2264.79352	-172.77357	442.80635	2074.83192	101.69523	423.77427	2274.13946	-171.58342	231.97325	1992.35746	81.39415	209.80900	
434	4.330	2076.44563	-64.70129	953.02956	2087.19503	-63.36480	765.91951	2211.37356	-60.28333	928.29033	2161.78482	36.23488	617.33627	2211.93762	-131.65046	635.30050	2067.97286	-43.79198	663.97602	2084.66600	-111.10798	671.96907	2151.92158	-16.44316	324.85621	2087.75656	27.62720	299.13124	1903.18205	6.76104	99.26144	1916.07857	-59.78677	119.18156	1892.73062	-26.44527	152.25974	1934.96227	-33.34999	67.30910	2282.63119	-33.52789	380.38447	2268.04530	-97.52932	335.28903	2227.16524	-137.07834	72.73915	2190.49064	-76.92250	79.97567	2172.37655	-125.92499	102.19285	2254.62861	-87.02822	65.96559	2273.02763	-174.68445	441.85443	2089.81880	101.91839	421.29388	2277.95600	-173.75549	229.82331	2008.93016	82.90838	209.13849	
435	4.340	2086.55847	-63.25358	951.75725	2099.34834	-60.22925	764.92391	2221.68908	-58.92794	928.38143	2174.67240	36.22784	614.93079	2223.34450	-131.58989	636.82457	2080.20281	-41.77724	663.50921	2096.43047	-109.07762	673.51905	2169.94639	-15.02438	322.79627	2105.45664	28.66879	296.90712	1917.34103	9.29293	101.43987	1930.35167	-57.44430	120.45143	1908.27372	-23.97835	154.61960	1947.48738	-30.99384	67.89292	2289.18118	-37.20026	378.84721	2273.10236	-100.99492	334.50622	2227.54963	-138.98605	71.97199	2190.94736	-78.84195	80.43414	2173.30295	-128.09629	102.43446	2254.69913	-88.79895	65.51303	2280.37391	-177.46884	441.44891	2105.02121	102.07204	419.67236	2281.04458	-176.68425	228.05994	2025.95076	84.59496	209.10421	
436	4.350	2096.49216	-61.41522	951.03892	2111.33315	-57.15245	764.52895	2231.77448	-57.32226	929.01534	2187.56572	35.88427	613.22937	2234.41486	-131.96269	638.84567	2092.34901	-39.92560	663.82699	2107.99375	-107.23211	675.67763	2187.72431	-13.92840	321.83532	2123.13963	29.70405	295.66492	1932.51116	12.15290	103.68278	1945.64501	-54.80306	121.70128	1924.46132	-21.37557	156.81565	1961.43871	-28.11072	68.80920	2295.01673	-41.61257	377.80675	2277.29947	-105.15270	334.26299	2227.80098	-141.00743	71.50893	2191.31550	-80.87839	81.21462	2174.00614	-130.40995	102.92355	2254.66657	-90.68690	65.31021	2286.83873	-180.94939	441.51361	2120.43435	102.17179	419.02020	2283.44717	-180.15686	226.65165	2043.28314	86.41100	209.83239	
437	4.360	2106.25649	-59.20642	950.91294	2123.12339	-54.21563	764.76326	2241.63321	-55.47830	930.21105	2200.44381	35.23459	612.32094	2245.14849	-132.74372	641.30471	2104.40553	-38.26247	664.93806	2119.35938	-105.60040	678.38204	2205.22212	-13.18814	322.05037	2140.77566	30.70380	295.48742	1948.57712	15.28531	106.03080	1961.88272	-51.91382	122.95399	1941.17434	-18.72450	158.87955	1976.77085	-24.72034	70.10044	2300.07704	-46.50155	377.19756	2280.63938	-109.77135	334.48455	2228.00253	-142.95039	71.30088	2191.70411	-82.83227	82.22268	2174.55570	-132.64415	103.57448	2254.64797	-92.51107	65.30282	2292.45924	-184.91783	441.95600	2136.06392	102.23577	419.39835	2285.17225	-183.94882	225.57242	2060.81147	88.30668	211.41136	
438	4.370	2115.86765	-56.66801	951.39259	2134.70034	-51.49119	765.62640	2251.27816	-53.41774	931.96310	2213.28509	34.32417	612.25256	2255.55255	-133.88706	644.12643	2116.36678	-36.79748	666.81077	2130.53377	-104.19445	681.54902	2222.44892	-12.80394	323.45655	2158.36542	31.64599	296.39955	1965.42924	18.62308	108.51886	1978.98699	-48.83583	124.23344	1958.32372	-16.10651	160.84752	1993.40531	-20.87239	71.79156	2304.33877	-51.59860	376.95190	2283.15794	-114.60882	335.09080	2228.17437	-144.65534	71.31619	2192.16479	-84.53052	83.38166	2174.97192	-134.59650	104.33120	2254.69768	-94.12818	65.44693	2297.30084	-189.15359	442.67947	2151.92159	102.28510	420.81398	2286.21490	-187.84222	224.80397	2078.44966	90.23192	213.87953	
439	4.380	2125.34787	-53.85923	952.46488	2146.05131	-49.03710	767.08863	2260.73157	-51.17124	934.23927	2226.06722	33.20980	613.02534	2265.63828	-135.32947	647.22452	2128.22572	-35.52274	669.37437	2141.52255	-103.00715	685.07946	2239.44761	-12.74416	326.00945	2175.93491	32.51940	298.36857	1982.97083	22.09584	111.16952	1996.87907	-45.62973	125.56292	1975.85249	-13.58420	162.75509	2011.23548	-16.64258	73.88764	2307.82028	-56.65495	377.00591	2284.92438	-119.43461	336.00409	2228.30021	-146.00566	71.53790	2192.70908	-85.84151	84.63515	2175.24996	-136.10501	105.16510	2254.82725	-95.43888	65.70968	2301.45202	-193.44312	443.59401	2168.01959	102.34412	423.22084	2286.57773	-191.64251	224.33423	2096.14828	92.14287	217.21820	
440	4.390	2134.72463	-50.85395	954.09119	2157.16823	-46.89250	769.09275	2270.02414	-48.77725	936.98036	2238.76716	31.95523	614.59422	2275.41806	-136.99534	650.50696	2139.97249	-34.41295	672.52307	2152.32772	-102.01226	688.86339	2256.28444	-12.94956	329.61247	2193.52906	33.32598	301.30926	2001.12301	25.63786	113.98780	2015.47989	-42.35078	126.96323	1993.73305	-11.19237	164.63227	2030.13458	-12.12555	76.37288	2310.58297	-61.46394	377.30189	2286.03820	-124.05007	337.15401	2228.35267	-146.93329	71.95805	2193.32647	-86.68460	85.94609	2175.38206	-137.06315	106.06900	2255.02555	-96.38939	66.06793	2305.01672	-197.59762	444.62386	2184.36492	102.44004	426.52411	2286.28809	-195.19215	224.15346	2113.89749	94.00758	221.35064	
441	4.400	2144.02943	-47.73550	956.20970	2168.04621	-45.07501	771.55775	2279.19359	-46.28036	940.10201	2251.36172	30.62637	616.87140	2284.90330	-138.80257	653.88097	2151.59387	-33.42742	676.12241	2162.94606	-101.16640	692.78493	2273.03796	-13.34040	334.12795	2211.20452	34.08122	305.09325	2019.82722	29.19456	116.95768	2034.71153	-39.04381	128.44980	2011.96148	-8.93405	166.49912	2049.96614	-7.42568	79.21054	2312.72894	-65.87711	377.78794	2286.62296	-128.30342	338.47952	2228.31272	-147.41911	72.57098	2193.99998	-87.03307	87.29348	2175.37387	-137.42695	107.04934	2255.27584	-96.96891	66.50552	2308.10542	-201.46697	445.71172	2200.95364	102.60199	430.58904	2285.40815	-198.37954	224.24973	2131.72539	95.81003	226.14763	
442	4.410	2153.29619	-44.59071	958.73910	2178.68260	-43.58024	774.38394	2288.28258	-43.72923	943.49848	2263.82829	29.28649	619.73320	2294.10341	-140.66878	657.25728	2163.07334	-32.51404	680.01750	2173.36879	-100.41318	696.72693	2289.78820	-13.82466	339.39031	2229.02150	34.81283	309.56133	2039.04600	32.72686	120.04045	2054.50025	-35.74013	130.02873	2030.55099	-6.78201	168.36147	2070.59592	-2.64695	82.34351	2314.39456	-69.81137	378.41636	2286.81793	-132.09730	339.92894	2228.18118	-147.48806	73.36748	2194.71727	-86.91034	88.66757	2175.25303	-137.21354	108.11814	2255.56743	-97.20329	67.01004	2310.82628	-204.94788	446.81928	2217.76575	102.85938	435.25221	2284.03660	-201.14205	224.60528	2149.69170	97.55198	231.43873	
